<svg width="17" height="17" viewBox="0 0 17 17" fill="none" xmlns="http://www.w3.org/2000/svg">
<path fill-rule="evenodd" clip-rule="evenodd" d="M4.29723 2.744C3.79949 2.68837 3.28383 2.68837 2.7861 2.744C2.77685 2.74504 2.7677 2.74922 2.76019 2.75663C2.75285 2.76387 2.74998 2.77118 2.74925 2.77739C2.68986 3.28518 2.68986 3.79815 2.74925 4.30594C2.74998 4.31215 2.75285 4.31947 2.76019 4.3267C2.7677 4.33411 2.77685 4.3383 2.7861 4.33933C3.28383 4.39496 3.79949 4.39496 4.29723 4.33933C4.30647 4.3383 4.31562 4.33411 4.32314 4.3267C4.33048 4.31947 4.33334 4.31215 4.33407 4.30594C4.39346 3.79815 4.39346 3.28518 4.33407 2.77739C4.33334 2.77118 4.33048 2.76387 4.32314 2.75663C4.31562 2.74922 4.30647 2.74504 4.29723 2.744ZM2.66808 1.68808C3.24425 1.62368 3.83908 1.62368 4.41524 1.68808C4.91981 1.74447 5.32943 2.14145 5.38937 2.65397C5.45836 3.24376 5.45836 3.83958 5.38937 4.42937C5.32943 4.94189 4.91981 5.33886 4.41524 5.39526C3.83908 5.45965 3.24425 5.45965 2.66808 5.39526C2.16352 5.33886 1.75389 4.94189 1.69395 4.42937C1.62497 3.83958 1.62497 3.24376 1.69395 2.65397C1.75389 2.14145 2.16352 1.74447 2.66808 1.68808Z" fill="black"/>
<path fill-rule="evenodd" clip-rule="evenodd" d="M9.25556 2.744C8.75783 2.68837 8.24216 2.68837 7.74443 2.744C7.73518 2.74504 7.72604 2.74922 7.71852 2.75663C7.71118 2.76387 7.70831 2.77118 7.70759 2.77739C7.6482 3.28518 7.6482 3.79815 7.70759 4.30594C7.70831 4.31215 7.71118 4.31947 7.71852 4.3267C7.72604 4.33411 7.73518 4.3383 7.74443 4.33933C8.24216 4.39496 8.75783 4.39496 9.25556 4.33933C9.26481 4.3383 9.27395 4.33411 9.28147 4.3267C9.28881 4.31947 9.29167 4.31215 9.2924 4.30594C9.35179 3.79815 9.35179 3.28518 9.2924 2.77739C9.29167 2.77118 9.28881 2.76387 9.28147 2.75663C9.27395 2.74922 9.26481 2.74504 9.25556 2.744ZM7.62641 1.68808C8.20258 1.62368 8.79741 1.62368 9.37358 1.68808C9.87814 1.74447 10.2878 2.14145 10.3477 2.65397C10.4167 3.24376 10.4167 3.83958 10.3477 4.42937C10.2878 4.94189 9.87814 5.33886 9.37358 5.39526C8.79741 5.45965 8.20258 5.45965 7.62641 5.39526C7.12185 5.33886 6.71222 4.94189 6.65228 4.42937C6.5833 3.83958 6.5833 3.24376 6.65228 2.65397C6.71222 2.14145 7.12185 1.74447 7.62641 1.68808Z" fill="black"/>
<path fill-rule="evenodd" clip-rule="evenodd" d="M14.2139 2.744C13.7162 2.68837 13.2005 2.68837 12.7028 2.744C12.6935 2.74504 12.6844 2.74922 12.6769 2.75663C12.6695 2.76387 12.6666 2.77118 12.6659 2.77739C12.6065 3.28518 12.6065 3.79815 12.6659 4.30594C12.6666 4.31215 12.6695 4.31947 12.6769 4.3267C12.6844 4.33411 12.6935 4.3383 12.7028 4.33933C13.2005 4.39496 13.7162 4.39496 14.2139 4.33933C14.2231 4.3383 14.2323 4.33411 14.2398 4.3267C14.2471 4.31947 14.25 4.31215 14.2507 4.30594C14.3101 3.79815 14.3101 3.28518 14.2507 2.77739C14.25 2.77118 14.2471 2.76387 14.2398 2.75663C14.2323 2.74922 14.2231 2.74504 14.2139 2.744ZM12.5847 1.68808C13.1609 1.62368 13.7557 1.62368 14.3319 1.68808C14.8365 1.74447 15.2461 2.14145 15.306 2.65397C15.375 3.24376 15.375 3.83958 15.306 4.42937C15.2461 4.94189 14.8365 5.33886 14.3319 5.39526C13.7557 5.45965 13.1609 5.45965 12.5847 5.39526C12.0802 5.33886 11.6706 4.94189 11.6106 4.42937C11.5416 3.83958 11.5416 3.24376 11.6106 2.65397C11.6706 2.14145 12.0802 1.74447 12.5847 1.68808Z" fill="black"/>
<path fill-rule="evenodd" clip-rule="evenodd" d="M4.29723 7.70234C3.79949 7.64671 3.28383 7.64671 2.7861 7.70234C2.77685 7.70337 2.7677 7.70755 2.76019 7.71496C2.75285 7.7222 2.74998 7.72952 2.74925 7.73573C2.68986 8.24351 2.68986 8.75649 2.74925 9.26427C2.74998 9.27048 2.75285 9.2778 2.76019 9.28503C2.7677 9.29244 2.77685 9.29663 2.7861 9.29766C3.28383 9.35329 3.79949 9.35329 4.29723 9.29766C4.30647 9.29663 4.31562 9.29244 4.32314 9.28503C4.33048 9.2778 4.33334 9.27048 4.33407 9.26427C4.39346 8.75649 4.39346 8.24351 4.33407 7.73573C4.33334 7.72952 4.33048 7.7222 4.32314 7.71496C4.31562 7.70755 4.30647 7.70337 4.29723 7.70234ZM2.66808 6.64641C3.24425 6.58202 3.83908 6.58202 4.41524 6.64641C4.91981 6.7028 5.32943 7.09978 5.38937 7.6123C5.45836 8.20209 5.45836 8.79791 5.38937 9.3877C5.32943 9.90022 4.91981 10.2972 4.41524 10.3536C3.83908 10.418 3.24425 10.418 2.66808 10.3536C2.16352 10.2972 1.75389 9.90022 1.69395 9.3877C1.62497 8.79791 1.62497 8.20209 1.69395 7.6123C1.75389 7.09978 2.16352 6.7028 2.66808 6.64641Z" fill="black"/>
<path fill-rule="evenodd" clip-rule="evenodd" d="M9.25556 7.70234C8.75783 7.64671 8.24216 7.64671 7.74443 7.70234C7.73518 7.70337 7.72604 7.70755 7.71852 7.71496C7.71118 7.7222 7.70831 7.72952 7.70759 7.73573C7.6482 8.24351 7.6482 8.75649 7.70759 9.26427C7.70831 9.27048 7.71118 9.2778 7.71852 9.28503C7.72604 9.29244 7.73518 9.29663 7.74443 9.29766C8.24216 9.35329 8.75783 9.35329 9.25556 9.29766C9.26481 9.29663 9.27395 9.29244 9.28147 9.28503C9.28881 9.2778 9.29167 9.27048 9.2924 9.26427C9.35179 8.75649 9.35179 8.24351 9.2924 7.73573C9.29167 7.72952 9.28881 7.7222 9.28147 7.71496C9.27395 7.70755 9.26481 7.70337 9.25556 7.70234ZM7.62641 6.64641C8.20258 6.58202 8.79741 6.58202 9.37358 6.64641C9.87814 6.7028 10.2878 7.09978 10.3477 7.6123C10.4167 8.20209 10.4167 8.79791 10.3477 9.3877C10.2878 9.90022 9.87814 10.2972 9.37358 10.3536C8.79741 10.418 8.20258 10.418 7.62641 10.3536C7.12185 10.2972 6.71222 9.90022 6.65228 9.3877C6.5833 8.79791 6.5833 8.20209 6.65228 7.6123C6.71222 7.09978 7.12185 6.7028 7.62641 6.64641Z" fill="black"/>
<path fill-rule="evenodd" clip-rule="evenodd" d="M14.2139 7.70234C13.7162 7.64671 13.2005 7.64671 12.7028 7.70234C12.6935 7.70337 12.6844 7.70755 12.6769 7.71496C12.6695 7.7222 12.6666 7.72952 12.6659 7.73573C12.6065 8.24351 12.6065 8.75649 12.6659 9.26427C12.6666 9.27048 12.6695 9.2778 12.6769 9.28503C12.6844 9.29244 12.6935 9.29663 12.7028 9.29766C13.2005 9.35329 13.7162 9.35329 14.2139 9.29766C14.2231 9.29663 14.2323 9.29244 14.2398 9.28503C14.2471 9.2778 14.25 9.27048 14.2507 9.26427C14.3101 8.75649 14.3101 8.24351 14.2507 7.73573C14.25 7.72952 14.2471 7.7222 14.2398 7.71496C14.2323 7.70755 14.2231 7.70337 14.2139 7.70234ZM12.5847 6.64641C13.1609 6.58202 13.7557 6.58202 14.3319 6.64641C14.8365 6.7028 15.2461 7.09978 15.306 7.6123C15.375 8.20209 15.375 8.79791 15.306 9.3877C15.2461 9.90022 14.8365 10.2972 14.3319 10.3536C13.7557 10.418 13.1609 10.418 12.5847 10.3536C12.0802 10.2972 11.6706 9.90022 11.6106 9.3877C11.5416 8.79791 11.5416 8.20209 11.6106 7.6123C11.6706 7.09978 12.0802 6.7028 12.5847 6.64641Z" fill="black"/>
<path fill-rule="evenodd" clip-rule="evenodd" d="M4.29723 12.6607C3.79949 12.605 3.28383 12.605 2.7861 12.6607C2.77685 12.6617 2.7677 12.6659 2.76019 12.6733C2.75285 12.6805 2.74998 12.6878 2.74925 12.6941C2.68986 13.2018 2.68986 13.7148 2.74925 14.2226C2.74998 14.2288 2.75285 14.2361 2.76019 14.2434C2.7677 14.2508 2.77685 14.255 2.7861 14.256C3.28383 14.3116 3.79949 14.3116 4.29723 14.256C4.30647 14.255 4.31562 14.2508 4.32314 14.2434C4.33048 14.2361 4.33334 14.2288 4.33407 14.2226C4.39346 13.7148 4.39346 13.2018 4.33407 12.6941C4.33334 12.6878 4.33048 12.6805 4.32314 12.6733C4.31562 12.6659 4.30647 12.6617 4.29723 12.6607ZM2.66808 11.6047C3.24425 11.5403 3.83908 11.5403 4.41524 11.6047C4.91981 11.6611 5.32943 12.0581 5.38937 12.5706C5.45836 13.1604 5.45836 13.7562 5.38937 14.346C5.32943 14.8586 4.91981 15.2555 4.41524 15.3119C3.83908 15.3763 3.24425 15.3763 2.66808 15.3119C2.16352 15.2555 1.75389 14.8586 1.69395 14.346C1.62497 13.7562 1.62497 13.1604 1.69395 12.5706C1.75389 12.0581 2.16352 11.6611 2.66808 11.6047Z" fill="black"/>
<path fill-rule="evenodd" clip-rule="evenodd" d="M9.25556 12.6607C8.75783 12.605 8.24216 12.605 7.74443 12.6607C7.73518 12.6617 7.72604 12.6659 7.71852 12.6733C7.71118 12.6805 7.70831 12.6878 7.70759 12.6941C7.6482 13.2018 7.6482 13.7148 7.70759 14.2226C7.70831 14.2288 7.71118 14.2361 7.71852 14.2434C7.72604 14.2508 7.73518 14.255 7.74443 14.256C8.24216 14.3116 8.75783 14.3116 9.25556 14.256C9.26481 14.255 9.27395 14.2508 9.28147 14.2434C9.28881 14.2361 9.29167 14.2288 9.2924 14.2226C9.35179 13.7148 9.35179 13.2018 9.2924 12.6941C9.29167 12.6878 9.28881 12.6805 9.28147 12.6733C9.27395 12.6659 9.26481 12.6617 9.25556 12.6607ZM7.62641 11.6047C8.20258 11.5403 8.79741 11.5403 9.37358 11.6047C9.87814 11.6611 10.2878 12.0581 10.3477 12.5706C10.4167 13.1604 10.4167 13.7562 10.3477 14.346C10.2878 14.8586 9.87814 15.2555 9.37358 15.3119C8.79741 15.3763 8.20258 15.3763 7.62641 15.3119C7.12185 15.2555 6.71222 14.8586 6.65228 14.346C6.5833 13.7562 6.5833 13.1604 6.65228 12.5706C6.71222 12.0581 7.12185 11.6611 7.62641 11.6047Z" fill="black"/>
<path fill-rule="evenodd" clip-rule="evenodd" d="M14.2139 12.6607C13.7162 12.605 13.2005 12.605 12.7028 12.6607C12.6935 12.6617 12.6844 12.6659 12.6769 12.6733C12.6695 12.6805 12.6666 12.6878 12.6659 12.6941C12.6065 13.2018 12.6065 13.7148 12.6659 14.2226C12.6666 14.2288 12.6695 14.2361 12.6769 14.2434C12.6844 14.2508 12.6935 14.255 12.7028 14.256C13.2005 14.3116 13.7162 14.3116 14.2139 14.256C14.2231 14.255 14.2323 14.2508 14.2398 14.2434C14.2471 14.2361 14.25 14.2288 14.2507 14.2226C14.3101 13.7148 14.3101 13.2018 14.2507 12.6941C14.25 12.6878 14.2471 12.6805 14.2398 12.6733C14.2323 12.6659 14.2231 12.6617 14.2139 12.6607ZM12.5847 11.6047C13.1609 11.5403 13.7557 11.5403 14.3319 11.6047C14.8365 11.6611 15.2461 12.0581 15.306 12.5706C15.375 13.1604 15.375 13.7562 15.306 14.346C15.2461 14.8586 14.8365 15.2555 14.3319 15.3119C13.7557 15.3763 13.1609 15.3763 12.5847 15.3119C12.0802 15.2555 11.6706 14.8586 11.6106 14.346C11.5416 13.7562 11.5416 13.1604 11.6106 12.5706C11.6706 12.0581 12.0802 11.6611 12.5847 11.6047Z" fill="black"/>
</svg>
